<?xml version="1.0" encoding="UTF-8" standalone="no"?>
<!DOCTYPE svg PUBLIC "-//W3C//DTD SVG 1.1//EN" "http://www.w3.org/Graphics/SVG/1.1/DTD/svg11.dtd">
<svg width="100%" height="100%" viewBox="0 0 811 75" version="1.1" xmlns="http://www.w3.org/2000/svg" xmlns:xlink="http://www.w3.org/1999/xlink" xml:space="preserve" xmlns:serif="http://www.serif.com/" style="fill-rule:evenodd;clip-rule:evenodd;stroke-linejoin:round;stroke-miterlimit:2;">
    <g transform="matrix(1,0,0,1,-383.827,-414.691)">
        <g transform="matrix(0.947456,0,0,0.920183,24.5988,19.2609)">
            <rect x="-25.18" y="-20.125" width="1689.34" height="980.07" style="fill:rgb(235,235,235);"/>
        </g>
        <g transform="matrix(1,0,0,1,326.094,129.375)">
            <text x="180.273px" y="358.016px" style="font-family:'AvenirNext-Bold', 'Avenir Next', sans-serif;font-weight:700;font-size:100px;fill:rgb(66,66,66);">A<tspan x="261.373px 340.973px 422.073px 492.773px 569.073px 631.673px 702.373px " y="358.016px 358.016px 358.016px 358.016px 358.016px 358.016px 358.016px ">CKERLEY</tspan></text>
        </g>
        <g transform="matrix(1,0,0,1,202.953,111.07)">
            <text x="180.273px" y="358.016px" style="font-family:'AvenirNext-Regular', 'Avenir Next', sans-serif;font-size:50px;fill:rgb(66,66,66);">T<tspan x="213.773px 254.673px " y="358.016px 358.016px ">HE</tspan></text>
        </g>
        <g transform="matrix(1,0,0,1,934.445,112.344)">
            <text x="180.273px" y="358.016px" style="font-family:'AvenirNext-Regular', 'Avenir Next', sans-serif;font-size:50px;fill:rgb(66,66,66);">C<tspan x="220.673px " y="358.016px ">O</tspan></text>
        </g>
    </g>
</svg>
